<?xml version="1.0" standalone="yes"?>
<svg width="512" height="512">
<path style="fill:#ffffff; stroke:none;" d="M0 0L0 512L512 512L512 0L0 0z"/>
<path style="fill:#000000; stroke:none;" d="M72 334L72 420L115 392.144L129 393.91L155 394L259 394L297 394L315 394.854L346 415.975L408 459.025L439 480L439 394C463.53 393.797 486.5 376.568 493.56 353C498.692 335.869 496 315.717 496 298L496 194C496 172.299 499.897 146.493 491.546 126C482.287 103.276 459.608 91.0138 436 90C435.997 64.9988 420.732 40.9277 396 33.439C379.395 28.4112 361.144 30 344 30L260 30L99 30C71.3595 30 42.7769 30.4449 25.5201 56C14.6484 72.0995 15 90.3882 15 109L15 171L15 246C15 260.774 13.3766 276.624 17.4282 291C24.3036 315.395 46.2503 333.929 72 334z"/>
<path style="fill:#ffffff; stroke:none;" d="M101 305L101 364C109.695 360.704 117.442 353.769 125 348.424C138.578 338.822 152.328 329.444 166 319.975C172.695 315.339 180.888 306.917 189 305.278C204.126 302.221 222.556 305 238 305L340 305C358.019 305 385.061 310.335 398.815 295.907C408.357 285.896 407 272.717 407 260L407 188L407 107C407 93.6646 408.841 79.6096 398.815 69.0934C389.632 59.4614 378.218 60 366 60L317 60L147 60L94 60C85.3949 60 75.3755 58.6045 67 60.7608C34.6782 69.0823 44 117.193 44 142L44 252C44 267.879 41.732 286.228 55.0147 297.787C67.2557 308.44 85.9921 305 101 305M436 119L436 250C436 275.017 437.634 298.794 417.83 317.572C392.615 341.481 352.903 334 321 334L236 334C224.176 334 208.369 331.237 197 334.51C181.879 338.864 166.034 355.206 153 364L153 365L271 365C286.56 365 309.247 360.784 324 365.702C332.531 368.546 340.714 376.423 348 381.576C367.675 395.489 388.264 413.672 410 424L410 365C425.897 365 445.163 368.542 457.7 356.535C469.946 344.807 467 327.364 467 312L467 206L467 160C467 148.279 467.076 136.958 457.907 128.184C451.435 121.992 444.253 120.988 436 119z"/>
<path style="fill:#000000; stroke:none;" d="M155 163L155 192L184 192L184 163L155 163M211 163L211 192L240 192L240 163L211 163M268 163L268 192L297 192L297 163L268 163z"/>
</svg>
